<?xml version="1.0"?><svg width="410.96" height="260.202" xmlns="http://www.w3.org/2000/svg">
 <g>
  <title>Layer 1</title>
  <g id="g3">
   <path d="m140.289612,251.201996c1.632141,-9.075623 10.108353,-14.717957 10.723419,-23.874039c-8.115204,2.350677 -13.914581,4.796661 -21.65274,6.271088c-8.305061,1.582855 -13.738968,-2.332306 -19.590042,3.642334c1.335297,-11.235672 19.934128,-6.044601 26.807632,-10.723221c-5.811859,0.678619 -6.794159,-6.83078 -12.372482,-0.606018c3.462151,-10.185394 16.365005,-1.295151 23.301804,-3.643204c5.411621,-1.830338 10.361496,-8.120682 14.227448,-12.341049c7.230057,-7.888931 15.987061,-15.742874 21.857742,-24.683823c-4.339279,-0.378677 -8.899612,-0.248383 -13.197006,0.201996c0.11409,0.582428 0.332489,1.051163 0.411819,1.819855c-4.865189,-3.186707 -5.071106,0.644516 -7.010773,1.416702c-4.852707,1.931778 -8.281891,2.148666 -13.609726,2.225616c-10.823242,0.15654 -11.213669,1.840836 -17.114655,9.104507c-3.236649,3.983368 -10.787598,6.020096 -7.423492,11.330963c-9.801712,-4.474838 6.480377,-14.863983 7.423492,-20.435471c-7.911079,1.682541 -37.194992,4.851761 -40.210556,10.521194c-0.346756,-9.630081 18.87426,-10.793152 25.982193,-11.330124c0,-0.134659 0,-0.271088 0,-0.404892c-0.205902,0.066467 -0.275436,0 -0.205902,-0.202881c-5.754807,-0.717972 -10.375763,-5.99736 -14.641068,-1.415833c1.328171,-8.788788 12.345734,-2.982941 16.084221,-2.023605c8.240013,2.114563 12.965263,-2.452118 21.85775,-3.84346c-39.505463,-5.229538 -77.907387,-36.635727 -78.358421,-78.299873c-0.172047,-15.977234 6.426018,-32.507164 -1.649078,-47.344048c-6.408192,-11.774368 -19.344025,-13.853943 -30.93119,-18.613884c7.705166,-7.794483 21.310432,-2.738083 29.899857,-5.867943c5.026535,-1.831219 10.679733,-5.947525 16.290131,-7.283772c14.950371,-3.560116 28.488785,1.531261 40.210548,10.31831c8.067955,6.048092 14.458336,14.655861 23.301796,19.625687c11.306381,6.354172 25.754013,8.268463 37.941971,12.94883c12.749527,4.89724 23.88298,12.032341 36.911514,16.186249c12.931381,4.123299 26.046387,8.320061 38.147873,14.567543c13.285263,6.858749 26.327164,7.226921 41.03508,9.711395c7.532257,1.272408 22.67337,2.167908 26.394897,9.10537c-7.923523,1.694794 -16.846344,2.695236 -25.157654,4.653244c25.01416,0 50.490051,4.120682 75.471222,6.575424c7.452911,0.731964 19.380585,-1.664185 23.507721,4.7547c1.236328,1.92305 0.365479,5.882813 -1.031342,6.879745c3.59317,3.902924 -0.443024,5.344986 -4.53717,4.653259c10.935547,0.625259 10.094086,5.721008 0.41272,5.665054c-18.269012,-0.107574 -37.655823,-3.683441 -56.087067,-5.058151c-11.6362,-0.868393 -23.251007,-1.794495 -34.850647,-2.933105c-6.296783,-0.619141 -13.571411,3.421951 -19.795074,4.957596c-12.325226,3.041534 -28.521774,1.290771 -37.529251,9.306503c-14.353134,12.773041 -29.861526,20.114532 -45.984955,26.505417c-7.189056,2.850021 -30.630798,24.100555 -31.961639,33.180557c-0.113205,0.768692 -1.103546,2.080444 -1.443161,2.833405c6.892212,0.318314 25.733505,-9.79361 25.569489,2.83078c-5.776199,-6.850021 -7.011673,-0.748581 -11.135223,1.010941c-3.036972,1.296875 -7.539383,1.158707 -10.722519,2.023605c-7.761337,2.109299 -9.492416,4.681229 -14.43425,12.139908c-3.296387,4.974167 -7.357544,9.735001 -11.135254,13.960617" id="path5" clip-rule="evenodd" fill-rule="evenodd" fill="#2c91f7"/>
  </g>
 </g>
</svg>